<svg width="223" height="46" viewBox="0 0 223 46" fill="none" xmlns="http://www.w3.org/2000/svg">
<path d="M16.66 35.3224C13.1974 35.3224 10.2247 34.5906 7.742 33.127C5.25934 31.6309 3.34834 29.5655 2.009 26.9309C0.669662 24.2639 0 21.1902 0 17.71C0 14.2298 0.669662 11.1562 2.009 8.48909C3.34834 5.82203 5.25934 3.7404 7.742 2.24424C10.2247 0.748081 13.1974 0 16.66 0C20.776 0 24.1406 1.02454 26.754 3.07364C29.4 5.09021 31.0496 7.93616 31.703 11.6115H24.794C24.3694 9.75758 23.4546 8.31021 22.05 7.26939C20.678 6.19606 18.8486 5.65939 16.562 5.65939C13.3934 5.65939 10.9107 6.73273 9.114 8.87939C7.31734 11.0261 6.419 13.9696 6.419 17.71C6.419 21.4504 7.31734 24.3939 9.114 26.5406C10.9107 28.6548 13.3934 29.7118 16.562 29.7118C18.8486 29.7118 20.678 29.2239 22.05 28.2482C23.4546 27.2399 24.3694 25.8576 24.794 24.1012H31.703C31.0496 27.6139 29.4 30.3624 26.754 32.3464C24.1406 34.3304 20.776 35.3224 16.66 35.3224ZM44.507 35.3224C42.4162 35.3224 40.7012 34.9972 39.362 34.3467C38.0226 33.6636 37.0262 32.7691 36.373 31.6633C35.7196 30.5575 35.393 29.3378 35.393 28.0042C35.393 25.76 36.275 23.9385 38.039 22.54C39.803 21.1415 42.449 20.4421 45.977 20.4421H52.151V19.8567C52.151 18.1979 51.6772 16.9782 50.73 16.1976C49.7826 15.417 48.6066 15.0267 47.202 15.0267C45.928 15.0267 44.8172 15.3357 43.87 15.9536C42.9226 16.5391 42.3346 17.4173 42.106 18.5882H35.981C36.1442 16.8318 36.7322 15.3031 37.745 14.0021C38.7902 12.7011 40.1296 11.7091 41.763 11.0261C43.3962 10.3105 45.2256 9.95273 47.251 9.95273C50.7136 9.95273 53.4412 10.8146 55.434 12.5385C57.4266 14.2624 58.423 16.7018 58.423 19.8567V34.737H53.082L52.494 30.8339C51.7752 32.1349 50.7626 33.2082 49.456 34.0539C48.182 34.8996 46.5322 35.3224 44.507 35.3224ZM45.928 30.4436C47.7246 30.4436 49.113 29.8582 50.093 28.6873C51.1056 27.5164 51.7426 26.069 52.004 24.3452H46.663C44.997 24.3452 43.8046 24.6542 43.086 25.2721C42.3672 25.8576 42.008 26.5894 42.008 27.4676C42.008 28.4109 42.3672 29.1427 43.086 29.663C43.8046 30.1834 44.752 30.4436 45.928 30.4436ZM73.4733 35.3224C71.3173 35.3224 69.4225 34.9809 67.7893 34.2979C66.1559 33.5824 64.8493 32.6066 63.8693 31.3706C62.8893 30.1346 62.3013 28.7036 62.1053 27.0773H68.4263C68.6223 28.0205 69.1449 28.8336 69.9943 29.5167C70.8763 30.1672 72.0033 30.4924 73.3753 30.4924C74.7473 30.4924 75.7435 30.216 76.3643 29.663C77.0175 29.1101 77.3443 28.4758 77.3443 27.7603C77.3443 26.7194 76.8869 26.0202 75.9723 25.6624C75.0575 25.2721 73.7835 24.8981 72.1503 24.5403C71.1049 24.3127 70.0433 24.0361 68.9653 23.7109C67.8873 23.3857 66.8909 22.9791 65.9763 22.4912C65.0943 21.9709 64.3755 21.3203 63.8203 20.5397C63.2649 19.7266 62.9873 18.7345 62.9873 17.5636C62.9873 15.417 63.8365 13.6118 65.5353 12.1482C67.2665 10.6845 69.6839 9.95273 72.7873 9.95273C75.6619 9.95273 77.9485 10.6195 79.6473 11.953C81.3785 13.2866 82.4075 15.1242 82.7343 17.4661H76.8053C76.4459 15.6772 75.0903 14.7827 72.7383 14.7827C71.5623 14.7827 70.6475 15.0104 69.9943 15.4658C69.3735 15.9212 69.0633 16.4903 69.0633 17.1733C69.0633 17.8888 69.5369 18.4581 70.4843 18.8809C71.4315 19.3037 72.6893 19.694 74.2573 20.0518C75.9559 20.4421 77.5075 20.8812 78.9123 21.3691C80.3495 21.8245 81.4929 22.5237 82.3423 23.467C83.1915 24.3776 83.6163 25.6949 83.6163 27.4188C83.6489 28.9149 83.2569 30.2648 82.4403 31.4682C81.6235 32.6716 80.4475 33.6148 78.9123 34.2979C77.3769 34.9809 75.5639 35.3224 73.4733 35.3224ZM98.2558 34.737C95.7078 34.737 93.666 34.119 92.1308 32.883C90.5954 31.647 89.8278 29.4516 89.8278 26.2967V15.7585H85.6628V10.5382H89.8278L90.5628 4.04939H96.0998V10.5382H102.666V15.7585H96.0998V26.3455C96.0998 27.5164 96.3448 28.3294 96.8348 28.7848C97.3574 29.2076 98.2394 29.4191 99.4808 29.4191H102.519V34.737H98.2558ZM115.45 35.3224C113.359 35.3224 111.644 34.9972 110.305 34.3467C108.965 33.6636 107.969 32.7691 107.316 31.6633C106.662 30.5575 106.336 29.3378 106.336 28.0042C106.336 25.76 107.218 23.9385 108.982 22.54C110.746 21.1415 113.392 20.4421 116.92 20.4421H123.094V19.8567C123.094 18.1979 122.62 16.9782 121.673 16.1976C120.725 15.417 119.549 15.0267 118.145 15.0267C116.871 15.0267 115.76 15.3357 114.813 15.9536C113.865 16.5391 113.277 17.4173 113.049 18.5882H106.924C107.087 16.8318 107.675 15.3031 108.688 14.0021C109.733 12.7011 111.072 11.7091 112.706 11.0261C114.339 10.3105 116.168 9.95273 118.194 9.95273C121.656 9.95273 124.384 10.8146 126.377 12.5385C128.369 14.2624 129.366 16.7018 129.366 19.8567V34.737H124.025L123.437 30.8339C122.718 32.1349 121.705 33.2082 120.399 34.0539C119.125 34.8996 117.475 35.3224 115.45 35.3224ZM116.871 30.4436C118.667 30.4436 120.056 29.8582 121.036 28.6873C122.048 27.5164 122.685 26.069 122.947 24.3452H117.606C115.94 24.3452 114.747 24.6542 114.029 25.2721C113.31 25.8576 112.951 26.5894 112.951 27.4676C112.951 28.4109 113.31 29.1427 114.029 29.663C114.747 30.1834 115.695 30.4436 116.871 30.4436ZM138.885 34.737L131.78 10.5382H138.003L142.216 27.9555L147.116 10.5382H154.074L158.974 27.9555L163.237 10.5382H169.46L162.306 34.737H155.789L150.595 16.6367L145.401 34.737H138.885ZM179.572 35.3224C177.482 35.3224 175.767 34.9972 174.427 34.3467C173.089 33.6636 172.092 32.7691 171.438 31.6633C170.786 30.5575 170.458 29.3378 170.458 28.0042C170.458 25.76 171.34 23.9385 173.104 22.54C174.868 21.1415 177.514 20.4421 181.042 20.4421H187.216V19.8567C187.216 18.1979 186.743 16.9782 185.795 16.1976C184.849 15.417 183.673 15.0267 182.267 15.0267C180.993 15.0267 179.883 15.3357 178.935 15.9536C177.989 16.5391 177.401 17.4173 177.171 18.5882H171.046C171.21 16.8318 171.798 15.3031 172.81 14.0021C173.856 12.7011 175.196 11.7091 176.828 11.0261C178.462 10.3105 180.292 9.95273 182.316 9.95273C185.78 9.95273 188.507 10.8146 190.499 12.5385C192.493 14.2624 193.488 16.7018 193.488 19.8567V34.737H188.147L187.559 30.8339C186.841 32.1349 185.829 33.2082 184.521 34.0539C183.247 34.8996 181.598 35.3224 179.572 35.3224ZM180.993 30.4436C182.791 30.4436 184.178 29.8582 185.158 28.6873C186.172 27.5164 186.809 26.069 187.069 24.3452H181.728C180.062 24.3452 178.871 24.6542 178.151 25.2721C177.433 25.8576 177.073 26.5894 177.073 27.4676C177.073 28.4109 177.433 29.1427 178.151 29.663C178.871 30.1834 179.817 30.4436 180.993 30.4436ZM200.718 45.4703L206.353 33.127H204.883L195.426 10.5382H202.237L209.048 27.5652L216.153 10.5382H222.817L207.382 45.4703H200.718Z" fill="white"/>
</svg>
