<svg width="136" height="91" viewBox="0 0 136 91" fill="none" xmlns="http://www.w3.org/2000/svg">
<g clip-path="url(#clip0_1_158)">
<path fill-rule="evenodd" clip-rule="evenodd" d="M128.315 0.218952C134.116 2.83026 139.878 5.36244 145.6 8.1419C146.833 8.73538 147.346 10.209 146.754 11.4355C146.162 12.6719 144.683 13.1865 143.459 12.593C137.767 9.83331 132.054 7.32097 126.293 4.72945C125.05 4.16564 124.497 2.70168 125.049 1.46527C125.612 0.218962 127.072 -0.344852 128.315 0.218952Z" fill="#118DA8"/>
<path fill-rule="evenodd" clip-rule="evenodd" d="M85.6952 31.1097C94.1205 49.3987 101.619 68.1031 109.649 86.5603C110.192 87.8165 109.62 89.2706 108.377 89.8147C107.124 90.3587 105.674 89.7948 105.121 88.5386C97.1103 70.1111 89.632 51.4364 81.2165 33.1869C80.6443 31.9406 81.1866 30.4766 82.4198 29.9029C83.6629 29.3292 85.123 29.8733 85.6952 31.1097Z" fill="#118DA8"/>
<path fill-rule="evenodd" clip-rule="evenodd" d="M13.4086 35.8577C10.7152 52.6729 7.54829 69.4386 5.04238 86.2835C4.8352 87.6287 3.58225 88.5584 2.24051 88.3605C0.888894 88.1627 -0.0384903 86.8968 0.158826 85.5516C2.6746 68.6869 5.84151 51.9013 8.54474 35.0663C8.76178 33.7211 10.0246 32.8011 11.3664 33.0187C12.718 33.2363 13.6256 34.5026 13.4086 35.8577Z" fill="#118DA8"/>
</g>
<defs>
<clipPath id="clip0_1_158">
<rect width="147" height="91" fill="white" transform="matrix(-1 0 0 1 147 0)"/>
</clipPath>
</defs>
</svg>
