<svg width="32" height="32" viewBox="0 0 32 32" fill="none" xmlns="http://www.w3.org/2000/svg">
<path d="M15.9511 0C7.14171 0 0 7.14153 0 15.9509C0 24.7606 7.14171 31.9016 15.9511 31.9016C24.7614 31.9016 31.9023 24.7606 31.9023 15.9509C31.9023 7.14209 24.7614 0.0007619 15.9509 0.0007619L15.9511 0ZM23.2661 23.0057C22.9804 23.4743 22.3671 23.6229 21.8985 23.3353C18.1534 21.0477 13.4387 20.5296 7.88629 21.7981C7.35124 21.92 6.8179 21.5848 6.696 21.0496C6.57352 20.5143 6.90743 19.981 7.44381 19.8591C13.52 18.4703 18.732 19.0686 22.9366 21.6381C23.4052 21.9257 23.5538 22.5372 23.2661 23.0057ZM25.2185 18.6619C24.8585 19.2477 24.0928 19.4324 23.508 19.0724C19.2204 16.4364 12.6846 15.6732 7.61314 17.2126C6.95543 17.4113 6.26076 17.0406 6.06114 16.384C5.86305 15.7263 6.2339 15.033 6.89048 14.833C12.6835 13.0753 19.8852 13.9267 24.809 16.9524C25.3938 17.3124 25.5785 18.0781 25.2185 18.6621V18.6619ZM25.3861 14.1393C20.2452 11.0857 11.7633 10.805 6.85486 12.2947C6.06667 12.5337 5.23314 12.0888 4.99429 11.3006C4.75543 10.512 5.2 9.67905 5.98876 9.43943C11.6233 7.72896 20.9899 8.05943 26.9088 11.5732C27.6193 11.9939 27.8517 12.9096 27.4307 13.6176C27.0117 14.3265 26.0936 14.5602 25.3869 14.1393H25.3861Z" fill="#1ED760"/>
</svg>
